<?xml version="1.0" standalone="no"?>
<!DOCTYPE svg PUBLIC "-//W3C//DTD SVG 20010904//EN"
 "http://www.w3.org/TR/2001/REC-SVG-20010904/DTD/svg10.dtd">
<svg version="1.0" xmlns="http://www.w3.org/2000/svg"
 width="500.000000pt" height="500.000000pt" viewBox="0 0 500.000000 500.000000"
 preserveAspectRatio="xMidYMid meet">

<g transform="translate(0.000000,500.000000) scale(0.100000,-0.100000)"
fill="#000000" stroke="none">
<path d="M2940 3691 c0 -37 61 -90 95 -83 16 3 170 -89 248 -148 39 -30 112
-95 162 -145 84 -85 87 -86 43 -30 -59 78 -188 201 -267 254 -34 24 -60 45
-58 48 6 6 -30 43 -42 43 -4 0 -37 13 -72 29 -83 37 -109 45 -109 32z"/>
<path d="M3320 3620 c0 -5 5 -10 10 -10 6 0 10 5 10 10 0 6 -4 10 -10 10 -5 0
-10 -4 -10 -10z"/>
<path d="M3221 3571 c-11 -7 -9 -11 8 -20 21 -12 27 -6 13 16 -5 7 -13 9 -21
4z"/>
<path d="M3233 3445 c-3 -9 -3 -18 0 -21 9 -9 27 6 27 22 0 19 -19 18 -27 -1z"/>
<path d="M3340 3340 c0 -5 5 -10 10 -10 6 0 10 5 10 10 0 6 -4 10 -10 10 -5 0
-10 -4 -10 -10z"/>
<path d="M3395 3210 c-3 -5 -1 -10 4 -10 6 0 11 5 11 10 0 6 -2 10 -4 10 -3 0
-8 -4 -11 -10z"/>
<path d="M3664 3009 c-3 -6 -1 -16 5 -22 8 -8 11 -5 11 11 0 24 -5 28 -16 11z"/>
<path d="M3616 2762 c-3 -6 -1 -14 5 -17 14 -9 20 -2 10 14 -6 8 -11 9 -15 3z"/>
<path d="M1347 2703 c-5 -9 -10 -164 -8 -255 1 -42 5 -58 15 -58 19 0 26 32
26 123 0 97 13 98 49 2 35 -91 51 -94 89 -18 57 116 72 128 72 60 0 -24 5 -48
11 -54 8 -8 7 -16 -2 -31 -10 -16 -10 -23 0 -36 9 -11 10 -20 1 -35 -11 -21
-4 -27 17 -13 8 5 13 55 15 152 3 141 2 145 -18 148 -16 2 -33 -15 -78 -83
-32 -47 -60 -85 -62 -85 -2 0 -24 43 -48 95 -41 87 -64 113 -79 88z"/>
<path d="M2126 2695 c-3 -8 -5 -84 -5 -170 -1 -130 2 -155 14 -155 12 0 15 14
13 68 -1 37 2 113 6 170 7 87 6 102 -7 102 -8 0 -17 -7 -21 -15z"/>
<path d="M2430 2699 c-56 -23 -74 -64 -49 -111 6 -11 35 -30 64 -43 85 -38
113 -101 56 -125 -25 -10 -36 -8 -80 11 -39 16 -55 19 -64 10 -16 -16 -1 -28
63 -50 62 -22 98 -15 130 26 25 32 25 56 3 95 -22 37 -91 72 -110 56 -16 -13
-15 -14 -31 32 -11 32 -11 37 10 54 18 14 33 17 70 13 55 -7 66 10 21 31 -32
14 -49 14 -83 1z"/>
<path d="M2817 2655 c-8 -18 11 -31 25 -17 11 11 3 32 -12 32 -4 0 -10 -7 -13
-15z"/>
<path d="M1750 2597 c-31 -15 -60 -71 -60 -114 0 -65 74 -116 134 -93 41 15
27 35 -23 31 -48 -3 -71 11 -71 44 0 24 17 35 56 35 24 0 64 31 64 50 0 14
-50 60 -64 60 -6 0 -22 -6 -36 -13z m58 -39 c2 -11 -8 -20 -33 -28 -45 -15
-53 -8 -31 25 19 29 59 31 64 3z"/>
<path d="M2948 2593 c-33 -21 -48 -53 -48 -104 0 -51 13 -75 51 -94 35 -18 99
-11 99 11 0 10 -13 14 -43 14 -30 0 -49 6 -60 18 -32 36 -16 62 37 62 30 0 66
27 66 50 0 19 -44 60 -64 60 -6 0 -23 -8 -38 -17z m57 -37 c0 -12 -10 -23 -28
-29 -36 -12 -43 -4 -29 29 15 31 57 31 57 0z"/>
<path d="M3568 2593 c-33 -21 -48 -53 -48 -104 0 -51 13 -75 51 -94 35 -18 99
-11 99 11 0 10 -13 14 -43 14 -30 0 -49 6 -60 18 -32 36 -16 62 37 62 30 0 66
27 66 50 0 19 -44 60 -64 60 -6 0 -23 -8 -38 -17z m57 -37 c0 -12 -10 -23 -28
-29 -36 -12 -43 -4 -29 29 15 31 57 31 57 0z"/>
<path d="M3176 2593 c-4 -4 -19 -7 -34 -8 l-27 0 -3 -102 c-2 -87 0 -103 13
-103 11 0 15 12 15 53 0 64 26 121 58 125 21 3 22 0 22 -53 0 -82 38 -160 61
-124 5 9 2 21 -9 32 -13 15 -16 34 -14 87 2 61 0 70 -20 84 -24 17 -50 21 -62
9z"/>
<path d="M1931 2577 c-16 -20 -4 -26 32 -16 26 7 34 6 45 -8 20 -27 14 -43
-16 -43 -35 0 -102 -45 -102 -69 0 -24 37 -71 56 -71 8 0 29 7 46 16 22 11 33
13 41 5 14 -14 37 -14 37 0 0 6 -7 17 -15 25 -10 11 -15 36 -15 79 0 55 -3 66
-22 79 -28 20 -72 21 -87 3z m75 -134 c-4 -11 -18 -25 -33 -32 -22 -10 -29 -9
-42 4 -19 19 -7 43 30 62 30 15 55 -4 45 -34z"/>
<path d="M2639 2564 c-19 -20 -24 -36 -24 -79 0 -43 5 -59 24 -79 14 -15 35
-26 51 -26 30 0 70 25 70 45 0 25 -21 28 -41 6 -25 -27 -34 -26 -53 1 -21 29
-20 77 0 107 14 19 22 22 50 16 26 -4 34 -2 34 8 0 36 -78 36 -111 1z"/>
<path d="M3351 2564 c-15 -19 -21 -41 -21 -79 0 -68 27 -105 75 -105 24 0 39
7 55 27 28 36 11 53 -25 25 -46 -37 -84 2 -71 73 9 44 28 58 66 50 23 -5 30
-3 30 8 0 36 -81 37 -109 1z"/>
<path d="M2816 2572 c-8 -13 -6 -166 3 -180 6 -11 10 -11 18 0 7 8 9 45 6 101
-5 78 -13 101 -27 79z"/>
<path d="M1360 2206 c0 -9 5 -16 10 -16 6 0 10 4 10 9 0 6 -4 13 -10 16 -5 3
-10 -1 -10 -9z"/>
<path d="M1290 2050 c0 -5 5 -10 11 -10 5 0 7 5 4 10 -3 6 -8 10 -11 10 -2 0
-4 -4 -4 -10z"/>
<path d="M1325 1960 c3 -5 8 -10 11 -10 2 0 4 5 4 10 0 6 -5 10 -11 10 -5 0
-7 -4 -4 -10z"/>
<path d="M1390 1860 c0 -5 5 -10 11 -10 5 0 7 5 4 10 -3 6 -8 10 -11 10 -2 0
-4 -4 -4 -10z"/>
<path d="M1655 1630 c4 -6 11 -8 16 -5 14 9 11 15 -7 15 -8 0 -12 -5 -9 -10z"/>
<path d="M1760 1535 c0 -8 7 -15 15 -15 8 0 15 7 15 15 0 8 -7 15 -15 15 -8 0
-15 -7 -15 -15z"/>
<path d="M1715 1495 c66 -59 88 -75 99 -75 7 0 17 -5 24 -12 6 -6 15 -8 19 -5
8 9 -16 34 -37 39 -8 2 -35 17 -60 34 -64 43 -80 50 -45 19z"/>
</g>
</svg>
